# xmcd
#
# Track frame offsets:
#	150
#	21877
#	41673
#	62756
#	78603
#	96104
#	109599
#	128166
#	144323
#	159977
#	179116
#	202480
#
# Disc length: 2930 seconds
#
# Revision: 1
# Processed by: cddbd v1.5.2PL0 Copyright (c) Steve Scherf et al.
# Submitted via: audiograbber 1.83.01
#
DISCID=ab0b700c
DTITLE=OneDay 40 - Unfinished business
DYEAR=2007
DGENRE=Country
TTITLE0=Doorway
TTITLE1=Unfinished Business
TTITLE2=50 Miles
TTITLE3=I´m Gone
TTITLE4=Love Ain´t Always Pretty
TTITLE5=Always
TTITLE6=Hometown
TTITLE7=What A Fool
TTITLE8=Move Me Like You Do
TTITLE9=Sad Cowboy
TTITLE10=Town To Town
TTITLE11=Wings Of An Angel
EXTD=
EXTT0=
EXTT1=
EXTT2=
EXTT3=
EXTT4=
EXTT5=
EXTT6=
EXTT7=
EXTT8=
EXTT9=
EXTT10=
EXTT11=
PLAYORDER=
